# xmcd
#
# Track frame offsets: 
#        150
#        23970
#        42750
#        66487
#
# Disc length: 1200 seconds
#
# Revision: 1
# Processed by: cddbd v1.5.1PL2 Copyright (c) Steve Scherf et al.
# Submitted via: ExactAudioCopy v0.95a5
#
DISCID=3104ae04
DTITLE=OLIVIA - Dear Angel
DYEAR=1999
DGENRE=JPop
TTITLE0=Dear Angel
TTITLE1=Remember Me?
TTITLE2=Dear Angel (English Version)
TTITLE3=Dear Angel (Instrumental)
EXTD=YEAR: 1999
EXTT0=
EXTT1=
EXTT2=
EXTT3=
PLAYORDER=
